<svg width="20" height="21" viewBox="0 0 20 21" fill="none" xmlns="http://www.w3.org/2000/svg">
<path d="M3.5498 9.68329V13.825C3.5498 15.3416 3.5498 15.3416 4.98314 16.3083L8.9248 18.5833C9.51647 18.925 10.4831 18.925 11.0748 18.5833L15.0165 16.3083C16.4498 15.3416 16.4498 15.3416 16.4498 13.825V9.68329C16.4498 8.16662 16.4498 8.16662 15.0165 7.19995L11.0748 4.92495C10.4831 4.58328 9.51647 4.58328 8.9248 4.92495L4.98314 7.19995C3.5498 8.16662 3.5498 8.16662 3.5498 9.68329Z" stroke="#292D32" stroke-width="1.5" stroke-linecap="round" stroke-linejoin="round"/>
<path d="M14.5837 6.85841V4.66675C14.5837 3.00008 13.7503 2.16675 12.0837 2.16675H7.91699C6.25033 2.16675 5.41699 3.00008 5.41699 4.66675V6.80008" stroke="#292D32" stroke-width="1.5" stroke-linecap="round" stroke-linejoin="round"/>
<path d="M10.5255 9.6583L11.0005 10.4C11.0755 10.5166 11.2421 10.6333 11.3671 10.6666L12.2171 10.8833C12.7421 11.0166 12.8838 11.4666 12.5421 11.8833L11.9838 12.5583C11.9005 12.6666 11.8338 12.8583 11.8421 12.9916L11.8921 13.8666C11.9255 14.4083 11.5421 14.6833 11.0421 14.4833L10.2255 14.1583C10.1005 14.1083 9.89213 14.1083 9.76713 14.1583L8.95047 14.4833C8.45047 14.6833 8.06713 14.4 8.10047 13.8666L8.15047 12.9916C8.1588 12.8583 8.09213 12.6583 8.0088 12.5583L7.45047 11.8833C7.1088 11.4666 7.25047 11.0166 7.77547 10.8833L8.62547 10.6666C8.7588 10.6333 8.92547 10.5083 8.99213 10.4L9.46713 9.6583C9.76713 9.2083 10.2338 9.2083 10.5255 9.6583Z" stroke="#292D32" stroke-width="1.5" stroke-linecap="round" stroke-linejoin="round"/>
</svg>
