<svg width="20" height="21" viewBox="0 0 20 21" fill="none" xmlns="http://www.w3.org/2000/svg">
<path d="M6.66734 18.8333H13.334C16.684 18.8333 17.284 17.4917 17.459 15.8583L18.084 9.19167C18.309 7.15833 17.7257 5.5 14.1673 5.5H5.834C2.27567 5.5 1.69234 7.15833 1.91734 9.19167L2.54234 15.8583C2.71734 17.4917 3.31734 18.8333 6.66734 18.8333Z" stroke="#292D32" stroke-width="1.5" stroke-miterlimit="10" stroke-linecap="round" stroke-linejoin="round"/>
<path d="M6.66699 5.50008V4.83341C6.66699 3.35841 6.66699 2.16675 9.33366 2.16675H10.667C13.3337 2.16675 13.3337 3.35841 13.3337 4.83341V5.50008" stroke="#292D32" stroke-width="1.5" stroke-miterlimit="10" stroke-linecap="round" stroke-linejoin="round"/>
<path d="M11.6663 11.3333V12.1667C11.6663 12.175 11.6663 12.175 11.6663 12.1833C11.6663 13.0917 11.658 13.8333 9.99967 13.8333C8.34967 13.8333 8.33301 13.1 8.33301 12.1917V11.3333C8.33301 10.5 8.33301 10.5 9.16634 10.5H10.833C11.6663 10.5 11.6663 10.5 11.6663 11.3333Z" stroke="#292D32" stroke-width="1.5" stroke-miterlimit="10" stroke-linecap="round" stroke-linejoin="round"/>
<path d="M18.042 9.66675C16.117 11.0667 13.917 11.9001 11.667 12.1834" stroke="#292D32" stroke-width="1.5" stroke-miterlimit="10" stroke-linecap="round" stroke-linejoin="round"/>
<path d="M2.18262 9.8916C4.05762 11.1749 6.17428 11.9499 8.33262 12.1916" stroke="#292D32" stroke-width="1.5" stroke-miterlimit="10" stroke-linecap="round" stroke-linejoin="round"/>
</svg>
