<svg width="20" height="21" viewBox="0 0 20 21" fill="none" xmlns="http://www.w3.org/2000/svg">
<path d="M6.875 5.29175C6.53333 5.29175 6.25 5.00841 6.25 4.66675V2.16675C6.25 1.82508 6.53333 1.54175 6.875 1.54175C7.21667 1.54175 7.5 1.82508 7.5 2.16675V4.66675C7.5 5.00841 7.21667 5.29175 6.875 5.29175Z" fill="#735CFF"/>
<path d="M13.125 5.29175C12.7833 5.29175 12.5 5.00841 12.5 4.66675V2.16675C12.5 1.82508 12.7833 1.54175 13.125 1.54175C13.4667 1.54175 13.75 1.82508 13.75 2.16675V4.66675C13.75 5.00841 13.4667 5.29175 13.125 5.29175Z" fill="#735CFF"/>
<path d="M10 12.2417C10.4333 12.2417 10.75 11.9834 10.75 11.5751C10.75 11.1584 10.4333 10.9167 10 10.9167C9.56667 10.9167 9.25 11.1584 9.25 11.5751C9.25 11.9834 9.56667 12.2417 10 12.2417Z" fill="#735CFF"/>
<path d="M10.0008 14.6667C10.5255 14.6667 10.9508 14.3197 10.9508 13.8917C10.9508 13.4637 10.5255 13.1167 10.0008 13.1167C9.47611 13.1167 9.05078 13.4637 9.05078 13.8917C9.05078 14.3197 9.47611 14.6667 10.0008 14.6667Z" fill="#735CFF"/>
<path d="M16.309 4.25008C15.759 3.84175 14.9673 4.23341 14.9673 4.92508V5.00841C14.9673 5.98341 14.2673 6.88341 13.2923 6.98342C12.1673 7.10008 11.2173 6.21675 11.2173 5.11675V4.25008C11.2173 3.79175 10.8423 3.41675 10.384 3.41675H9.61732C9.15898 3.41675 8.78398 3.79175 8.78398 4.25008V5.11675C8.78398 5.77508 8.44232 6.35841 7.92565 6.68341C7.85065 6.73341 7.76732 6.77508 7.68398 6.81675C7.60898 6.85841 7.52565 6.89175 7.43398 6.91675C7.33398 6.95008 7.22565 6.97508 7.10898 6.98342C6.97565 7.00008 6.84232 7.00008 6.70898 6.98342C6.59232 6.97508 6.48398 6.95008 6.38398 6.91675C6.30065 6.89175 6.21732 6.85841 6.13398 6.81675C6.05065 6.77508 5.96732 6.73341 5.89232 6.68341C5.36732 6.31675 5.03398 5.68341 5.03398 5.00841V4.92508C5.03398 4.28341 4.35065 3.90008 3.80898 4.17508C3.80065 4.18341 3.79232 4.18341 3.78398 4.19175C3.75065 4.20841 3.72565 4.22508 3.69232 4.25008C3.66732 4.27508 3.63398 4.29175 3.60898 4.31675C3.37565 4.50008 3.16732 4.70841 2.99232 4.93341C2.90065 5.03341 2.82565 5.14175 2.75898 5.25008C2.75065 5.25841 2.74232 5.26675 2.73398 5.28341C2.65898 5.39175 2.59232 5.51675 2.53398 5.63341C2.51732 5.65008 2.50898 5.65841 2.50898 5.67508C2.45898 5.77508 2.40898 5.87508 2.37565 5.98341C2.35065 6.02508 2.34232 6.05841 2.32565 6.10008C2.27565 6.22508 2.24232 6.35008 2.20898 6.47508C2.17565 6.59175 2.15065 6.71675 2.13398 6.84175C2.11732 6.93341 2.10898 7.02508 2.10065 7.12508C2.09232 7.24175 2.08398 7.35841 2.08398 7.47508V14.7751C2.08398 17.0167 3.90065 18.8334 6.14232 18.8334H13.859C16.1006 18.8334 17.9173 17.0167 17.9173 14.7751V7.47508C17.9173 6.15008 17.284 4.99175 16.309 4.25008ZM10.0007 15.7084C8.70898 15.7084 7.91732 15.0667 7.91732 14.0334C7.91732 13.4667 8.20898 12.9751 8.71732 12.6834C8.35065 12.4251 8.10898 12.0417 8.10898 11.5167C8.10898 10.4334 8.97565 9.87508 10.0007 9.87508C11.0257 9.87508 11.884 10.4334 11.884 11.5167C11.884 12.0417 11.6507 12.4251 11.2757 12.6834C11.7923 12.9751 12.084 13.4667 12.084 14.0334C12.084 15.0667 11.284 15.7084 10.0007 15.7084Z" fill="#735CFF"/>
</svg>
