<svg width="20" height="21" viewBox="0 0 20 21" fill="none" xmlns="http://www.w3.org/2000/svg">
<path d="M13.9582 3.46675V2.16675C13.9582 1.82508 13.6749 1.54175 13.3332 1.54175C12.9915 1.54175 12.7082 1.82508 12.7082 2.16675V3.41675H7.29153V2.16675C7.29153 1.82508 7.0082 1.54175 6.66653 1.54175C6.32487 1.54175 6.04153 1.82508 6.04153 2.16675V3.46675C3.79153 3.67508 2.69987 5.01675 2.5332 7.00841C2.51653 7.25008 2.71653 7.45008 2.94987 7.45008H17.0499C17.2915 7.45008 17.4915 7.24175 17.4665 7.00841C17.2999 5.01675 16.2082 3.67508 13.9582 3.46675Z" fill="#735CFF"/>
<path d="M16.6667 8.69995H3.33333C2.875 8.69995 2.5 9.07495 2.5 9.53328V14.6666C2.5 17.1666 3.75 18.8333 6.66667 18.8333H13.3333C16.25 18.8333 17.5 17.1666 17.5 14.6666V9.53328C17.5 9.07495 17.125 8.69995 16.6667 8.69995ZM7.675 15.675C7.63333 15.7083 7.59167 15.75 7.55 15.775C7.5 15.8083 7.45 15.8333 7.4 15.85C7.35 15.875 7.3 15.8916 7.25 15.9C7.19167 15.9083 7.14167 15.9166 7.08333 15.9166C6.975 15.9166 6.86667 15.8916 6.76667 15.85C6.65833 15.8083 6.575 15.7499 6.49167 15.675C6.34167 15.5166 6.25 15.3 6.25 15.0833C6.25 14.8666 6.34167 14.65 6.49167 14.4916C6.575 14.4166 6.65833 14.3583 6.76667 14.3166C6.91667 14.25 7.08333 14.2333 7.25 14.2666C7.3 14.275 7.35 14.2916 7.4 14.3166C7.45 14.3333 7.5 14.3583 7.55 14.3916C7.59167 14.425 7.63333 14.4583 7.675 14.4916C7.825 14.65 7.91667 14.8666 7.91667 15.0833C7.91667 15.3 7.825 15.5166 7.675 15.675ZM7.675 12.7583C7.51667 12.9083 7.3 13 7.08333 13C6.86667 13 6.65 12.9083 6.49167 12.7583C6.34167 12.6 6.25 12.3833 6.25 12.1666C6.25 11.95 6.34167 11.7333 6.49167 11.575C6.725 11.3416 7.09167 11.2666 7.4 11.4C7.50833 11.4416 7.6 11.5 7.675 11.575C7.825 11.7333 7.91667 11.95 7.91667 12.1666C7.91667 12.3833 7.825 12.6 7.675 12.7583ZM10.5917 15.675C10.4333 15.825 10.2167 15.9166 10 15.9166C9.78333 15.9166 9.56667 15.825 9.40833 15.675C9.25833 15.5166 9.16667 15.3 9.16667 15.0833C9.16667 14.8666 9.25833 14.65 9.40833 14.4916C9.71667 14.1833 10.2833 14.1833 10.5917 14.4916C10.7417 14.65 10.8333 14.8666 10.8333 15.0833C10.8333 15.3 10.7417 15.5166 10.5917 15.675ZM10.5917 12.7583C10.55 12.7916 10.5083 12.825 10.4667 12.8583C10.4167 12.8916 10.3667 12.9166 10.3167 12.9333C10.2667 12.9583 10.2167 12.975 10.1667 12.9833C10.1083 12.9916 10.0583 13 10 13C9.78333 13 9.56667 12.9083 9.40833 12.7583C9.25833 12.6 9.16667 12.3833 9.16667 12.1666C9.16667 11.95 9.25833 11.7333 9.40833 11.575C9.48333 11.5 9.575 11.4416 9.68333 11.4C9.99167 11.2666 10.3583 11.3416 10.5917 11.575C10.7417 11.7333 10.8333 11.95 10.8333 12.1666C10.8333 12.3833 10.7417 12.6 10.5917 12.7583ZM13.5083 15.675C13.35 15.825 13.1333 15.9166 12.9167 15.9166C12.7 15.9166 12.4833 15.825 12.325 15.675C12.175 15.5166 12.0833 15.3 12.0833 15.0833C12.0833 14.8666 12.175 14.65 12.325 14.4916C12.6333 14.1833 13.2 14.1833 13.5083 14.4916C13.6583 14.65 13.75 14.8666 13.75 15.0833C13.75 15.3 13.6583 15.5166 13.5083 15.675ZM13.5083 12.7583C13.4667 12.7916 13.425 12.825 13.3833 12.8583C13.3333 12.8916 13.2833 12.9166 13.2333 12.9333C13.1833 12.9583 13.1333 12.975 13.0833 12.9833C13.025 12.9916 12.9667 13 12.9167 13C12.7 13 12.4833 12.9083 12.325 12.7583C12.175 12.6 12.0833 12.3833 12.0833 12.1666C12.0833 11.95 12.175 11.7333 12.325 11.575C12.4083 11.5 12.4917 11.4416 12.6 11.4C12.75 11.3333 12.9167 11.3166 13.0833 11.35C13.1333 11.3583 13.1833 11.375 13.2333 11.4C13.2833 11.4166 13.3333 11.4416 13.3833 11.475C13.425 11.5083 13.4667 11.5416 13.5083 11.575C13.6583 11.7333 13.75 11.95 13.75 12.1666C13.75 12.3833 13.6583 12.6 13.5083 12.7583Z" fill="#735CFF"/>
</svg>
