<svg width="37" height="36" viewBox="0 0 37 36" fill="none" xmlns="http://www.w3.org/2000/svg">
<path d="M28.5023 3.00049H25.6523C22.3823 3.00049 20.6573 4.72549 20.6573 7.99549V10.8455C20.6573 14.1155 22.3823 15.8405 25.6523 15.8405H28.5023C31.7723 15.8405 33.4973 14.1155 33.4973 10.8455V7.99549C33.4973 4.72549 31.7723 3.00049 28.5023 3.00049ZM11.358 20.145H8.50805C5.22305 20.145 3.49805 21.87 3.49805 25.14V27.99C3.49805 31.275 5.22305 33 8.49305 33H11.343C14.613 33 16.338 31.275 16.338 28.005V25.155C16.353 21.87 14.628 20.145 11.358 20.145ZM9.93305 15.8705C13.487 15.8705 16.368 12.9894 16.368 9.43549C16.368 5.88154 13.487 3.00049 9.93305 3.00049C6.3791 3.00049 3.49805 5.88154 3.49805 9.43549C3.49805 12.9894 6.3791 15.8705 9.93305 15.8705ZM27.0629 33.0033C30.6168 33.0033 33.4979 30.1223 33.4979 26.5683C33.4979 23.0144 30.6168 20.1333 27.0629 20.1333C23.5089 20.1333 20.6279 23.0144 20.6279 26.5683C20.6279 30.1223 23.5089 33.0033 27.0629 33.0033Z" fill="#F2622B"/>
</svg>
