<svg width="34" height="34" viewBox="0 0 34 34" fill="none" xmlns="http://www.w3.org/2000/svg">
<path d="M22.9345 2.83301H11.0629C5.9062 2.83301 2.83203 5.90717 2.83203 11.0638V22.9213C2.83203 28.0922 5.9062 31.1663 11.0629 31.1663H22.9204C28.077 31.1663 31.1512 28.0922 31.1512 22.9355V11.0638C31.1654 5.90717 28.0912 2.83301 22.9345 2.83301ZM14.0379 22.9355C14.0379 23.8422 13.3012 24.5788 12.3804 24.5788C11.4737 24.5788 10.737 23.8422 10.737 22.9355V18.3172C10.737 17.4105 11.4737 16.6738 12.3804 16.6738C13.3012 16.6738 14.0379 17.4105 14.0379 18.3172V22.9355ZM23.2604 22.9355C23.2604 23.8422 22.5237 24.5788 21.617 24.5788C20.6962 24.5788 19.9595 23.8422 19.9595 22.9355V11.0638C19.9595 10.1572 20.6962 9.42051 21.617 9.42051C22.5237 9.42051 23.2604 10.1572 23.2604 11.0638V22.9355Z" fill="#735CFF"/>
</svg>
