<svg width="34" height="34" viewBox="0 0 34 34" fill="none" xmlns="http://www.w3.org/2000/svg">
<path d="M22.9345 2.83301H11.0629C5.9062 2.83301 2.83203 5.90717 2.83203 11.0638V22.9213C2.83203 28.0922 5.9062 31.1663 11.0629 31.1663H22.9204C28.077 31.1663 31.1512 28.0922 31.1512 22.9355V11.0638C31.1654 5.90717 28.0912 2.83301 22.9345 2.83301ZM14.0804 18.7988C13.117 20.2438 11.7854 21.4197 10.227 22.1988C10.0854 22.2697 9.91536 22.3122 9.75953 22.3122C9.36286 22.3122 8.99453 22.0997 8.81036 21.7313C8.5412 21.2072 8.7537 20.5697 9.29203 20.3005C10.5245 19.6913 11.5729 18.7563 12.3237 17.623C12.5787 17.2405 12.5787 16.7588 12.3237 16.3763C11.5587 15.243 10.5104 14.308 9.29203 13.6988C8.7537 13.4438 8.5412 12.8063 8.81036 12.268C9.06536 11.7438 9.70286 11.5313 10.227 11.8005C11.7854 12.5797 13.117 13.7555 14.0804 15.2005C14.817 16.2913 14.817 17.708 14.0804 18.7988ZM24.082 22.3122H18.4154C17.8345 22.3122 17.3529 21.8305 17.3529 21.2497C17.3529 20.6688 17.8345 20.1872 18.4154 20.1872H24.082C24.6629 20.1872 25.1445 20.6688 25.1445 21.2497C25.1445 21.8305 24.6629 22.3122 24.082 22.3122Z" fill="#F2622B"/>
</svg>
