<svg width="34" height="34" viewBox="0 0 34 34" fill="none" xmlns="http://www.w3.org/2000/svg">
<path d="M29.8046 18.8114L28.5012 17.5364L17.5221 28.5014L18.8396 29.8189C19.9446 30.9239 21.0921 31.4764 22.2254 31.4764C23.3587 31.4764 24.5062 30.9239 25.6112 29.8189L29.8046 25.6256C32.0571 23.3589 32.0571 21.0781 29.8046 18.8114ZM15.1431 4.1525C12.9188 1.92833 10.5814 1.92833 8.35719 4.1525L4.14969 8.34583C1.93969 10.57 1.93969 12.9075 4.14969 15.1317L5.45302 16.435L16.4322 5.45583L15.1431 4.1525ZM30.8964 5.5787C29.0406 10.2112 24.8047 16.2603 20.7672 20.2128C20.1864 16.5578 17.2681 13.6962 13.5848 13.1862C17.5514 9.13453 23.6431 4.84203 28.2897 2.97203C29.1114 2.66037 29.9331 2.9012 30.4431 3.4112C30.9814 3.94953 31.2364 4.75703 30.8964 5.5787Z" fill="#F2622B"/>
<path d="M19.5196 21.3792C19.2362 21.62 18.9529 21.8608 18.6696 22.0875L16.1337 24.1133C16.1337 24.0708 16.1196 24.0142 16.1196 23.9575C15.9212 22.4417 15.2129 21.0392 14.0655 19.8917C12.9038 18.73 11.4588 18.0217 9.87214 17.8233C9.82964 17.8233 9.77297 17.8092 9.73047 17.8092L11.7846 15.2167C11.983 14.9617 12.1955 14.7208 12.4221 14.4658L13.3855 14.5933C16.4312 15.0183 18.8821 17.4125 19.3637 20.4442L19.5196 21.3792Z" fill="#F2622B"/>
<path d="M14.7762 24.9628C14.7762 26.5211 14.1812 28.0086 13.0478 29.1278C12.1837 30.0061 11.022 30.6011 9.60533 30.7711L6.13448 31.1536C4.23615 31.3661 2.60698 29.737 2.81948 27.8245L3.20198 24.3395C3.54198 21.237 6.13448 19.2536 8.88282 19.197C9.15198 19.1828 9.44948 19.197 9.73282 19.2253C10.937 19.3811 12.0987 19.9336 13.0762 20.897C14.0253 21.8461 14.5637 22.9653 14.7195 24.1411C14.7479 24.4245 14.7762 24.6936 14.7762 24.9628Z" fill="#F2622B"/>
</svg>
