<svg width="20" height="20" viewBox="0 0 20 20" fill="none" xmlns="http://www.w3.org/2000/svg">
<path d="M18.3327 13.4917C18.3327 16.5251 16.5244 18.3334 13.491 18.3334H12.4993C12.041 18.3334 11.666 17.9584 11.666 17.5001V12.6918C11.666 12.4668 11.8493 12.2751 12.0743 12.2751L13.541 12.2501C13.6577 12.2418 13.7577 12.1584 13.7827 12.0418L14.0744 10.4501C14.0994 10.3001 13.9827 10.1584 13.8243 10.1584L12.0493 10.1834C11.816 10.1834 11.6327 10.0001 11.6244 9.77509L11.591 7.73341C11.591 7.60008 11.6993 7.48342 11.841 7.48342L13.841 7.45008C13.9827 7.45008 14.091 7.34176 14.091 7.20009L14.0577 5.20007C14.0577 5.05841 13.9494 4.95008 13.8077 4.95008L11.5577 4.98342C10.1743 5.00842 9.07436 6.14175 9.09936 7.52508L9.14102 9.81675C9.14935 10.0501 8.96602 10.2334 8.73269 10.2418L7.73268 10.2584C7.59101 10.2584 7.48269 10.3667 7.48269 10.5084L7.50769 12.0918C7.50769 12.2334 7.61601 12.3417 7.75768 12.3417L8.75769 12.3251C8.99102 12.3251 9.17434 12.5084 9.18267 12.7334L9.25767 17.4834C9.266 17.9501 8.891 18.3334 8.42434 18.3334H6.50768C3.47435 18.3334 1.66602 16.5251 1.66602 13.4834V6.50841C1.66602 3.47508 3.47435 1.66675 6.50768 1.66675H13.491C16.5244 1.66675 18.3327 3.47508 18.3327 6.50841V13.4917Z" fill="white"/>
</svg>
