<svg width="26" height="26" viewBox="0 0 26 26" fill="none" xmlns="http://www.w3.org/2000/svg">
<path d="M13.2705 23.596C11.7686 23.6483 10.2856 23.2482 9.01376 22.4476C7.74194 21.6469 6.73999 20.4827 6.13782 19.1058C5.53564 17.7288 5.36101 16.2027 5.63657 14.7254C5.91214 13.248 6.62518 11.8875 7.68325 10.8202C8.98036 9.51117 12.195 7.12353 11.5208 2.14403C17.6567 5.93219 20.7945 9.82506 15.0076 16.0308C16.0069 15.9959 17.506 15.9435 19.9183 13.3878C20.2151 14.1509 20.474 14.9734 20.5042 15.8389C20.5736 17.8268 19.8505 19.7608 18.4939 21.2156C17.1374 22.6703 15.2584 23.5266 13.2705 23.596Z" fill="white"/>
</svg>
