<svg width="20" height="20" viewBox="0 0 20 20" fill="none" xmlns="http://www.w3.org/2000/svg">
<g clip-path="url(#clip0_1814_25354)">
<path d="M14.9999 0H5.00012C2.25043 0 0.000244141 2.25019 0.000244141 4.99988V15.0001C0.000244141 17.7491 2.25043 20 5.00012 20H14.9999C17.7496 20 19.9998 17.7491 19.9998 15.0001V4.99988C19.9998 2.25019 17.7496 0 14.9999 0ZM18.333 15.0001C18.333 16.8376 16.8384 18.3333 14.9999 18.3333H5.00012C3.16242 18.3333 1.66695 16.8376 1.66695 15.0001V4.99988C1.66695 3.16193 3.16242 1.66671 5.00012 1.66671H14.9999C16.8384 1.66671 18.333 3.16193 18.333 4.99988V15.0001Z" fill="white"/>
<path d="M15.4182 5.83197C16.1085 5.83197 16.6682 5.27234 16.6682 4.582C16.6682 3.89166 16.1085 3.33203 15.4182 3.33203C14.7278 3.33203 14.1682 3.89166 14.1682 4.582C14.1682 5.27234 14.7278 5.83197 15.4182 5.83197Z" fill="white"/>
<path d="M10 5C7.23806 5 5.00012 7.23818 5.00012 9.99988C5.00012 12.7606 7.23806 15.0002 10 15.0002C12.7612 15.0002 14.9999 12.7606 14.9999 9.99988C14.9999 7.23818 12.7612 5 10 5ZM10 13.3335C8.15927 13.3335 6.66683 11.8411 6.66683 9.99988C6.66683 8.15866 8.15927 6.66671 10 6.66671C11.8407 6.66671 13.3332 8.15866 13.3332 9.99988C13.3332 11.8411 11.8407 13.3335 10 13.3335Z" fill="white"/>
</g>
<defs>
<clipPath id="clip0_1814_25354">
<rect width="20" height="20" fill="white"/>
</clipPath>
</defs>
</svg>
