<svg width="20" height="20" viewBox="0 0 20 20" fill="none" xmlns="http://www.w3.org/2000/svg">
<path d="M18.0002 18.0005V12.1405C18.0002 9.26055 17.3802 7.06055 14.0202 7.06055C12.4002 7.06055 11.3202 7.94055 10.8802 8.78055H10.8402V7.32055H7.66022V18.0005H10.9802V12.7005C10.9802 11.3005 11.2402 9.96055 12.9602 9.96055C14.6602 9.96055 14.6802 11.5405 14.6802 12.7805V17.9805H18.0002V18.0005Z" fill="white"/>
<path d="M2.26178 7.32031H5.58178V18.0003H2.26178V7.32031Z" fill="white"/>
<path d="M3.92006 2C2.86006 2 2.00006 2.86 2.00006 3.92C2.00006 4.98 2.86006 5.86 3.92006 5.86C4.98006 5.86 5.84006 4.98 5.84006 3.92C5.84006 2.86 4.98006 2 3.92006 2Z" fill="white"/>
</svg>
