<svg width="34" height="34" viewBox="0 0 34 34" fill="none" xmlns="http://www.w3.org/2000/svg">
<path d="M28.3609 15.1589L25.3576 17.0572C24.7909 17.4114 24.0684 17.3264 23.6009 16.8589L17.1834 10.4414C16.7159 9.97391 16.6309 9.25141 16.9851 8.68475L18.8834 5.68141C20.0451 3.85391 22.3684 3.76891 24.0826 5.46891L28.5876 9.97391C30.1742 11.5747 30.0751 14.0681 28.3609 15.1589ZM20.8394 28.2622L8.48612 29.7072C8.37607 29.7218 8.26746 29.7321 8.16036 29.7385C7.18976 29.7958 6.94911 28.6517 7.63661 27.9642L11.3053 24.2955C11.7586 23.8564 11.7586 23.1622 11.3053 22.7231C10.8803 22.2839 10.1861 22.2839 9.73279 22.7231L6.06411 26.3916C5.37661 27.0792 4.24309 26.8375 4.29467 25.8666C4.30008 25.7646 4.30886 25.6612 4.32112 25.5564L5.78029 13.203C6.14862 10.1146 7.28195 9.09465 10.5403 9.29298L12.6653 9.42048C13.3595 9.46298 14.0111 9.76048 14.5069 10.2563L23.7861 19.5355C24.2819 20.0314 24.5794 20.6831 24.6077 21.3772L24.7352 23.5022C25.0611 26.7747 23.9419 27.9081 20.8394 28.2622Z" fill="#FFAF16"/>
</svg>
