<svg width="19" height="19" viewBox="0 0 19 19" fill="none" xmlns="http://www.w3.org/2000/svg">
<path d="M17.4173 11.875V7.125C17.4173 5.81083 16.3565 4.75 15.0423 4.75H3.95898C2.64482 4.75 1.58398 5.81083 1.58398 7.125V11.875C1.58398 13.1892 2.64482 14.25 3.95898 14.25H15.0423C16.3565 14.25 17.4173 13.1892 17.4173 11.875Z" fill="#735CFF"/>
<path d="M4.6943 15.4375H14.3051C14.5585 15.4375 14.7406 15.6671 14.6931 15.9125C14.4793 17.0842 13.7906 17.4167 12.136 17.4167H6.86347C5.20097 17.4167 4.52013 17.0842 4.30638 15.9125C4.25888 15.6671 4.44097 15.4375 4.6943 15.4375Z" fill="#735CFF"/>
<path d="M6.86347 1.58325H12.136C13.7985 1.58325 14.4793 1.91575 14.6931 3.08742C14.7406 3.33284 14.5506 3.56242 14.3051 3.56242H4.6943C4.44097 3.56242 4.25888 3.33284 4.30638 3.08742C4.52013 1.91575 5.20097 1.58325 6.86347 1.58325Z" fill="#735CFF"/>
</svg>
