<svg width="20" height="21" viewBox="0 0 20 21" fill="none" xmlns="http://www.w3.org/2000/svg">
<path d="M10.0004 4.375C6.01706 4.375 2.77539 7.61667 2.77539 11.6C2.77539 15.5833 6.01706 18.8333 10.0004 18.8333C13.9837 18.8333 17.2254 15.5917 17.2254 11.6083C17.2254 7.625 13.9837 4.375 10.0004 4.375ZM10.6254 11.3333C10.6254 11.675 10.3421 11.9583 10.0004 11.9583C9.65872 11.9583 9.37539 11.675 9.37539 11.3333V7.16667C9.37539 6.825 9.65872 6.54167 10.0004 6.54167C10.3421 6.54167 10.6254 6.825 10.6254 7.16667V11.3333Z" fill="#735CFF"/>
<path d="M12.4089 3.37508H7.59219C7.25885 3.37508 6.99219 3.10841 6.99219 2.77508C6.99219 2.44175 7.25885 2.16675 7.59219 2.16675H12.4089C12.7422 2.16675 13.0089 2.43341 13.0089 2.76675C13.0089 3.10008 12.7422 3.37508 12.4089 3.37508Z" fill="#735CFF"/>
</svg>
