<svg width="146" height="36" viewBox="0 0 146 36" fill="none" xmlns="http://www.w3.org/2000/svg">
<g clip-path="url(#clip0_2381_31021)">
<path d="M69.6172 18.2638C69.6172 19.7717 70.8691 20.9963 72.4106 20.9963C73.9521 20.9963 75.204 19.7717 75.204 18.2638C75.204 16.7558 73.9521 15.5312 72.4106 15.5312C70.8671 15.5312 69.6172 16.7558 69.6172 18.2638Z" fill="#FFAF16"/>
<path d="M30.5808 27.4201C25.7143 27.4201 21.5916 23.725 21.2425 18.9043C20.8774 13.8643 24.7719 9.47253 29.9242 9.1135C32.6838 8.91943 35.376 9.92665 37.3064 11.8693C37.9135 12.4787 37.8996 13.4548 37.2747 14.0468C36.6517 14.6406 35.6538 14.627 35.0487 14.0157C33.7671 12.7251 31.9795 12.0575 30.1464 12.1856C26.7261 12.4224 24.141 15.3393 24.383 18.685C24.6251 22.0308 27.6069 24.5576 31.0272 24.3228C33.7611 24.1326 36.0168 22.254 36.6438 19.6476C36.8422 18.8189 37.6913 18.3066 38.5364 18.5007C39.3836 18.6947 39.9093 19.5234 39.7089 20.3521C38.7666 24.2781 35.3661 27.1096 31.2494 27.3949C31.0253 27.4124 30.8031 27.4201 30.5808 27.4201Z" fill="white"/>
<path d="M93.3074 27.4061C88.4408 27.4061 84.3182 23.711 83.969 18.8903C83.604 13.8503 87.4984 9.45846 92.6507 9.09943C95.4104 8.9073 98.1026 9.91258 100.033 11.8552C100.333 12.158 100.495 12.5675 100.477 12.9886C100.461 13.4097 100.269 13.8056 99.9437 14.0851L92.7837 20.2526C92.1309 20.8154 91.135 20.7533 90.5616 20.1148C89.9863 19.4764 90.0498 18.5021 90.7025 17.9413L96.452 12.9905C95.3806 12.3773 94.1387 12.0862 92.8729 12.1754C89.4526 12.4122 86.8675 15.3291 87.1096 18.6748C87.3516 22.0206 90.3355 24.5474 93.7538 24.3126C96.4877 24.1224 98.7434 22.2438 99.3703 19.6374C99.5687 18.8088 100.418 18.2964 101.263 18.4905C102.11 18.6845 102.636 19.5132 102.436 20.3419C101.493 24.2679 98.0927 27.0994 93.976 27.3847C93.7518 27.3983 93.5276 27.4061 93.3074 27.4061Z" fill="white"/>
<path d="M72.4228 27.3875C67.2567 27.3875 63.0547 23.2771 63.0547 18.2236C63.0547 13.17 67.2567 9.05957 72.4228 9.05957C75.7678 9.05957 78.8825 10.8237 80.5491 13.6629C81.3605 15.0447 81.791 16.6225 81.791 18.2236C81.793 23.2771 77.589 27.3875 72.4228 27.3875ZM72.4228 12.1395C68.9926 12.1395 66.2032 14.8681 66.2032 18.2236C66.2032 21.579 68.9926 24.3077 72.4228 24.3077C75.8531 24.3077 78.6425 21.579 78.6425 18.2236C78.6425 17.1601 78.3588 16.1121 77.8192 15.198C76.7121 13.3116 74.6449 12.1395 72.4228 12.1395Z" fill="white"/>
<path d="M80.2198 19.605C79.3508 19.605 78.6445 18.916 78.6445 18.064V1.54092C78.6445 0.69089 79.3488 0 80.2198 0C81.0907 0 81.795 0.688949 81.795 1.54092V18.066C81.795 18.916 81.0888 19.605 80.2198 19.605Z" fill="white"/>
<path d="M134.112 36.0002C133.908 36.0002 133.7 35.9614 133.501 35.8779C132.7 35.5461 132.325 34.6437 132.664 33.8596L142.979 9.96959C143.318 9.18555 144.24 8.81876 145.042 9.15061C145.843 9.48247 146.218 10.3849 145.879 11.1689L135.565 35.059C135.309 35.647 134.725 36.0002 134.112 36.0002Z" fill="white"/>
<path d="M136.819 28.0432C136.217 28.0432 135.642 27.7036 135.38 27.133L128.075 11.1999C127.72 10.4236 128.075 9.51147 128.867 9.16409C129.66 8.8167 130.593 9.16409 130.948 9.93843L138.253 25.8716C138.608 26.6479 138.253 27.56 137.461 27.9074C137.253 28.0005 137.035 28.0432 136.819 28.0432Z" fill="white"/>
<path d="M9.36815 27.3875C4.20198 27.3875 0 23.2771 0 18.2236C0 13.17 4.20198 9.05957 9.36815 9.05957C12.7131 9.05957 15.8279 10.8237 17.4944 13.6629C18.3058 15.0447 18.7363 16.6225 18.7363 18.2236C18.7383 23.2771 14.5343 27.3875 9.36815 27.3875ZM9.36815 12.1395C5.93793 12.1395 3.14851 14.8681 3.14851 18.2236C3.14851 21.579 5.93793 24.3077 9.36815 24.3077C12.7984 24.3077 15.5878 21.579 15.5878 18.2236C15.5878 17.1601 15.3041 16.1121 14.7645 15.198C13.6574 13.3116 11.5902 12.1395 9.36815 12.1395Z" fill="white"/>
<path d="M17.1612 27.4087C16.2922 27.4087 15.5859 26.7197 15.5859 25.8678V18.1962C15.5859 17.3462 16.2902 16.6553 17.1612 16.6553C18.0321 16.6553 18.7364 17.3442 18.7364 18.1962V25.8678C18.7364 26.7178 18.0302 27.4087 17.1612 27.4087Z" fill="white"/>
<path d="M51.251 27.3875C46.0848 27.3875 41.8828 23.2771 41.8828 18.2236C41.8828 13.17 46.0848 9.05957 51.251 9.05957C54.5959 9.05957 57.7087 10.8237 59.3772 13.6629C60.1886 15.0447 60.6191 16.6225 60.6191 18.2236C60.6191 23.2771 56.4152 27.3875 51.251 27.3875ZM51.251 12.1395C47.8207 12.1395 45.0313 14.8681 45.0313 18.2236C45.0313 21.579 47.8207 24.3077 51.251 24.3077C54.6812 24.3077 57.4706 21.579 57.4706 18.2236C57.4706 17.1601 57.1869 16.1121 56.6473 15.198C55.5383 13.3116 53.471 12.1395 51.251 12.1395Z" fill="white"/>
<path d="M59.044 27.4087C58.175 27.4087 57.4688 26.7197 57.4688 25.8678V18.1962C57.4688 17.3462 58.173 16.6553 59.044 16.6553C59.9149 16.6553 60.6192 17.3442 60.6192 18.1962V25.8678C60.6192 26.7178 59.9149 27.4087 59.044 27.4087Z" fill="white"/>
<path d="M106.991 27.345C107.874 27.345 108.585 26.6444 108.585 25.7866V14.4354C108.585 14.4354 113.144 18.8971 113.596 19.3512C113.9 19.6792 114.338 19.8946 114.834 19.8946C115.324 19.8946 115.762 19.687 116.066 19.3512H116.072C116.524 18.9029 121.083 14.4354 121.083 14.4354V25.7866C121.083 26.6502 121.8 27.345 122.682 27.345C123.565 27.345 124.282 26.6444 124.282 25.7866V10.6879C124.282 10.6685 124.262 10.2979 124.23 10.2144C124.043 9.47695 123.359 8.92773 122.548 8.92773C122.155 8.92773 121.8 9.0597 121.508 9.26736C120.708 9.84763 114.846 15.7279 114.846 15.7279C114.84 15.7279 108.977 9.84763 108.176 9.26736C107.888 9.0597 107.527 8.92773 107.14 8.92773C106.327 8.92773 105.644 9.47695 105.458 10.2144C105.426 10.2959 105.406 10.6685 105.406 10.6879V25.7866C105.398 26.6502 106.109 27.345 106.991 27.345Z" fill="white"/>
</g>
<defs>
<clipPath id="clip0_2381_31021">
<rect width="146" height="36" fill="white"/>
</clipPath>
</defs>
</svg>
